<?xml version="1.0" encoding="utf-8"?>
<!-- Generator: Adobe Illustrator 24.1.0, SVG Export Plug-In . SVG Version: 6.00 Build 0)  -->
<svg version="1.1" id="Layer_1" xmlns="http://www.w3.org/2000/svg" xmlns:xlink="http://www.w3.org/1999/xlink" x="0px" y="0px"
	 viewBox="0 0 209.7 37.5" style="enable-background:new 0 0 209.7 37.5;" xml:space="preserve">
<style type="text/css">
	.st0{fill:#EF3739;}
</style>
<g>
	<g>
		<path class="st0" d="M107.9,28.3c0-0.4,1.1-0.9,2.6-0.9c1.6,0,2.8,0.9,2.8,2.4c0,1.5-1.2,2.3-2.3,2.3c-0.6,0-1.1-0.2-1.3-0.3
			c0,0.9,0,2,0.1,2.3c-0.1,0.1-0.5,0.3-0.7,0.3c-0.3,0-0.5-0.7-0.5-1.7c0-1.2,0.5-2.6,0.5-3.8c0-0.3-0.1-0.5-0.3-0.5
			c-0.2,0-0.5,0.1-0.7,0.2C108,28.5,107.9,28.4,107.9,28.3z M110.6,31.3c0.9,0,1.7-0.6,1.7-1.6c0-1-0.8-1.6-1.7-1.6
			c-0.2,0-0.4,0-0.6,0.1c0,0.1,0,0.2,0,0.4c0,0.7-0.2,1.5-0.3,2.6C109.9,31.3,110.3,31.3,110.6,31.3z"/>
		<path class="st0" d="M116.6,33.4c0,0.4-0.5,0.8-1,0.8c-0.9,0-1.4-0.5-1.4-2.5c0-1.7,0.2-3.3,0.4-4.4c0.1-0.6,0.3-0.8,0.6-0.8
			c0.3,0,0.8,0.4,0.8,0.7c0,0.3-0.3,1-0.6,1.7c-0.1,0.5-0.2,1.5-0.2,2.6c0,1.4,0.2,1.7,0.6,1.7c0.3,0,0.6-0.1,0.7-0.3
			C116.5,33.2,116.6,33.3,116.6,33.4z"/>
		<path class="st0" d="M122.1,33.6c0,0.3-0.4,0.6-0.9,0.6c-0.5,0-0.9-0.4-0.9-1.5h0c-0.3,0.9-0.8,1.5-1.6,1.5
			c-0.9,0-1.7-0.9-1.7-2.2c0-1.6,1-2.9,2.2-2.9c0.5,0,1,0.3,1.2,0.9h0c0.2-0.9,0.4-1.2,0.7-1.2c0.2,0,0.5,0.3,0.5,0.5
			c0,0.3-0.1,0.6-0.3,1.2c-0.1,0.4-0.1,1-0.1,1.6c0,1,0.2,1.3,0.4,1.3c0.2,0,0.3,0,0.5-0.1C122.1,33.4,122.1,33.5,122.1,33.6z
			 M119.2,30.1c-0.6,0-1.2,0.7-1.2,1.9c0,1,0.4,1.5,0.9,1.5c0.6,0,1.1-0.6,1.4-1.9l0-0.7C120,30.3,119.6,30.1,119.2,30.1z
			 M120.1,26.5c0.1-0.4,0.3-0.6,0.6-0.6c0.3,0,0.4,0.2,0.4,0.5c0,0.2,0,0.3-0.2,0.6c-0.3,0.5-0.7,0.9-1.2,1.2
			c-0.1,0.1-0.2,0.1-0.3,0.1c-0.1,0-0.2-0.1-0.2-0.2C119.6,27.7,119.9,27.3,120.1,26.5z"/>
		<path class="st0" d="M124.6,33.6c0.6,0,0.9-0.3,0.9-0.6c0-0.3-0.2-0.5-1.2-0.8c-0.9-0.3-1.3-0.7-1.3-1.4c0-0.9,0.8-1.6,1.8-1.6
			c0.7,0,1.2,0.4,1.2,0.9c0,0.2-0.2,0.5-0.5,0.5c-0.1-0.4-0.5-0.7-0.9-0.7c-0.4,0-0.8,0.2-0.8,0.6c0,0.3,0.2,0.5,1.1,0.8
			c1,0.4,1.4,0.7,1.4,1.4c0,0.9-0.8,1.7-1.9,1.7c-1,0-1.7-0.6-1.7-1.2c0-0.3,0.2-0.6,0.6-0.7C123.3,33.1,123.9,33.6,124.6,33.6z"/>
		<path class="st0" d="M127.8,28.9c0.1-1,0.2-1.4,0.5-1.4c0.3,0,0.7,0.3,0.7,0.7c0,0.3-0.2,0.7-0.5,1.2l0,0.2c0.3,0,0.9-0.1,1.3-0.1
			l0,0c0,0.2-0.1,0.5-0.2,0.6c-0.4,0-0.8,0-1.2,0c0,0.4-0.1,1.7-0.1,2.3c0,0.8,0.2,1,0.7,1c0.3,0,0.7-0.2,1-0.5
			c0.1,0.1,0.1,0.2,0.1,0.3c0,0.4-0.6,1-1.4,1c-0.7,0-1.3-0.5-1.3-1.5c0-0.8,0.2-1.9,0.3-2.6l-0.9,0.1c0-0.3,0.1-0.5,0.2-0.6
			C127.4,29.5,127.7,29.3,127.8,28.9z"/>
		<path class="st0" d="M130.2,29.9c0-0.2,0.6-0.7,1.2-0.7c0.5,0,0.9,0.4,0.9,1.2c0,0.9-0.2,1.7-0.2,2.4c0,0.6,0.1,0.7,0.4,0.7
			c0.2,0,0.3,0,0.5-0.1c0.1,0.1,0.1,0.2,0.1,0.3c0,0.3-0.4,0.6-0.9,0.6c-0.7,0-1.1-0.5-1.1-1.4c0-0.6,0.1-1.3,0.1-2.1
			c0-0.6-0.2-0.8-0.4-0.8c-0.2,0-0.4,0-0.6,0.1C130.3,30.1,130.2,30,130.2,29.9z M131.9,27.2c0.3,0,0.6,0.2,0.6,0.6
			c0,0.3-0.2,0.7-0.6,0.7c-0.3,0-0.5-0.2-0.5-0.6C131.3,27.5,131.5,27.2,131.9,27.2z"/>
		<path class="st0" d="M135.9,29.9c-0.7,0-1.2,0.7-1.2,2c0,1,0.6,1.6,1.4,1.6c0.5,0,0.9-0.2,1.2-0.4c0.1,0,0.1,0.1,0.1,0.3
			c0,0.4-0.6,1-1.6,1c-1.2,0-2.1-0.9-2.1-2.3c0-1.5,1.1-2.7,2.3-2.7c0.9,0,1.4,0.5,1.4,1c0,0.3-0.2,0.5-0.6,0.6
			C136.6,30.2,136.3,29.9,135.9,29.9z"/>
		<path class="st0" d="M137.9,31.9c0-1.6,1.1-2.7,2.3-2.7c1.2,0,2.1,1,2.1,2.4c0,1.6-1.1,2.7-2.3,2.7
			C138.9,34.3,137.9,33.3,137.9,31.9z M138.9,31.9c0,1.1,0.5,1.6,1.2,1.6c0.7,0,1.2-0.7,1.2-1.9c0-1.1-0.5-1.6-1.2-1.6
			C139.5,30,138.9,30.7,138.9,31.9z"/>
		<path class="st0" d="M145.1,33.6c0.6,0,0.9-0.3,0.9-0.6c0-0.3-0.2-0.5-1.2-0.8c-0.9-0.3-1.3-0.7-1.3-1.4c0-0.9,0.8-1.6,1.8-1.6
			c0.7,0,1.2,0.4,1.2,0.9c0,0.2-0.2,0.5-0.5,0.5c-0.1-0.4-0.5-0.7-0.9-0.7c-0.4,0-0.8,0.2-0.8,0.6c0,0.3,0.2,0.5,1.1,0.8
			c1,0.4,1.4,0.7,1.4,1.4c0,0.9-0.8,1.7-1.9,1.7c-1,0-1.7-0.6-1.7-1.2c0-0.3,0.2-0.6,0.6-0.7C143.8,33.1,144.4,33.6,145.1,33.6z"/>
		<path class="st0" d="M148.9,29.9c0-0.2,0.6-0.7,1.2-0.7c0.6,0,0.9,0.4,0.9,1.4h0c0.4-0.9,1-1.4,1.7-1.4c0.8,0,1.6,0.8,1.6,2.2
			c0,1.7-1.1,2.8-2.2,2.8c-0.7,0-1.2-0.3-1.4-0.7c0,0.2,0,0.5,0,0.7c0,1,0.2,1.7,0.2,2.3c0,0.2-0.3,0.6-0.6,0.6
			c-0.3,0-0.6-0.4-0.6-1.1c0-0.3,0.1-1.5,0.3-2.7c0-0.7,0.1-1.8,0.1-2.6c0-0.6-0.2-0.9-0.5-0.9c-0.2,0-0.4,0-0.6,0.1
			C149,30.1,148.9,30,148.9,29.9z M150.9,32.8c0.2,0.4,0.6,0.7,1.2,0.7c0.8,0,1.3-0.7,1.3-1.9c0-0.9-0.4-1.5-0.9-1.5
			c-0.6,0-1.2,0.7-1.5,1.7L150.9,32.8z"/>
		<path class="st0" d="M160.4,33.6c0,0.3-0.4,0.6-0.9,0.6c-0.5,0-0.9-0.4-0.9-1.5h0c-0.3,0.9-0.8,1.5-1.6,1.5
			c-0.9,0-1.7-0.9-1.7-2.2c0-1.6,1-2.9,2.2-2.9c0.5,0,1,0.3,1.2,0.9h0c0.2-0.9,0.4-1.2,0.7-1.2c0.2,0,0.5,0.3,0.5,0.5
			c0,0.3-0.1,0.6-0.3,1.2c-0.1,0.4-0.1,1-0.1,1.6c0,1,0.2,1.3,0.4,1.3c0.2,0,0.3,0,0.5-0.1C160.4,33.4,160.4,33.5,160.4,33.6z
			 M157.5,30.1c-0.6,0-1.2,0.7-1.2,1.9c0,1,0.4,1.5,0.9,1.5c0.6,0,1.1-0.6,1.4-1.9l0-0.7C158.3,30.3,157.8,30.1,157.5,30.1z"/>
		<path class="st0" d="M163.8,30.2c-0.6,0-1.2,1.1-1.2,2.1c0,0.4,0.2,0.8,0.2,1.3c0,0.2-0.3,0.6-0.6,0.6c-0.3,0-0.6-0.4-0.6-1.1
			c0-0.4,0.1-1.2,0.1-2c0-0.8-0.1-1.1-0.4-1.1c-0.2,0-0.4,0-0.6,0.1c-0.1-0.1-0.1-0.2-0.1-0.3c0-0.2,0.4-0.7,1-0.7
			c0.6,0,0.9,0.4,0.9,1.7h0c0.4-1.2,1-1.8,1.5-1.8c0.4,0,0.7,0.3,0.7,0.7c0,0.2-0.1,0.4-0.4,0.6C164.2,30.3,164,30.2,163.8,30.2z"/>
		<path class="st0" d="M170.1,33.6c0,0.3-0.4,0.6-0.9,0.6c-0.5,0-0.9-0.4-0.9-1.5h0c-0.3,0.9-0.8,1.5-1.6,1.5
			c-0.9,0-1.7-0.9-1.7-2.2c0-1.6,1-2.9,2.2-2.9c0.5,0,1,0.3,1.2,0.9h0c0.2-0.9,0.4-1.2,0.7-1.2c0.2,0,0.5,0.3,0.5,0.5
			c0,0.3-0.1,0.6-0.3,1.2c-0.1,0.4-0.1,1-0.1,1.6c0,1,0.2,1.3,0.4,1.3c0.2,0,0.3,0,0.5-0.1C170.1,33.4,170.1,33.5,170.1,33.6z
			 M167.2,30.1c-0.6,0-1.2,0.7-1.2,1.9c0,1,0.4,1.5,0.9,1.5c0.6,0,1.1-0.6,1.4-1.9l0-0.7C168,30.3,167.6,30.1,167.2,30.1z"/>
		<path class="st0" d="M176.5,33.2c0,0.4-0.7,1-1.7,1c-1.3,0-2.2-0.9-2.2-2.4c0-1.4,1-2.7,2.4-2.7c0.9,0,1.5,0.5,1.5,1.4
			c0,0.9-0.6,1.5-1.6,1.5c-0.4,0-1-0.2-1.3-0.3c0,1.1,0.5,1.6,1.5,1.6c0.6,0,1-0.2,1.3-0.4C176.4,33,176.5,33.1,176.5,33.2z
			 M174.6,31.5c0.7,0,1-0.4,1-0.9c0-0.4-0.4-0.7-0.8-0.7c-0.6,0-1.2,0.6-1.3,1.5C173.9,31.4,174.2,31.5,174.6,31.5z"/>
		<path class="st0" d="M180.1,33.4c0,0.4-0.5,0.8-1,0.8c-0.9,0-1.4-0.5-1.4-2.5c0-1.7,0.2-3.3,0.4-4.4c0.1-0.6,0.3-0.8,0.6-0.8
			c0.3,0,0.8,0.4,0.8,0.7c0,0.3-0.3,1-0.6,1.7c-0.1,0.5-0.2,1.5-0.2,2.6c0,1.4,0.2,1.7,0.6,1.7c0.3,0,0.6-0.1,0.7-0.3
			C180,33.2,180.1,33.3,180.1,33.4z"/>
		<path class="st0" d="M187.5,33.6c0,0.3-0.4,0.6-0.9,0.6c-0.6,0-1-0.5-1-1.4c0-0.4,0.1-1.1,0.1-1.8c0-0.7-0.2-1-0.6-1
			c-0.5,0-1.3,0.8-1.5,1.6c0,0.3,0,0.6,0.1,1c0.1,0.4,0.1,0.7,0.1,0.9c0,0.2-0.3,0.6-0.6,0.6c-0.3,0-0.6-0.4-0.6-1.2
			c0-1.9,0.2-4.7,0.4-5.7c0.1-0.6,0.3-0.8,0.6-0.8c0.3,0,0.8,0.4,0.8,0.7c0,0.3-0.2,0.9-0.6,1.7c-0.1,0.5-0.2,1.2-0.2,1.9h0
			c0.5-1.1,1.1-1.6,1.8-1.6c0.7,0,1.2,0.6,1.2,1.6c0,0.6-0.1,1.3-0.1,2c0,0.5,0.1,0.7,0.4,0.7c0.2,0,0.3,0,0.5-0.1
			C187.5,33.4,187.5,33.5,187.5,33.6z"/>
		<path class="st0" d="M188,31.9c0-1.6,1.1-2.7,2.3-2.7c1.2,0,2.1,1,2.1,2.4c0,1.6-1.1,2.7-2.3,2.7C189,34.3,188,33.3,188,31.9z
			 M189.1,31.9c0,1.1,0.5,1.6,1.2,1.6c0.7,0,1.2-0.7,1.2-1.9c0-1.1-0.5-1.6-1.2-1.6C189.6,30,189.1,30.7,189.1,31.9z"/>
		<path class="st0" d="M196.8,30.2c0.2-0.9,0.4-1.2,0.7-1.2c0.2,0,0.5,0.3,0.5,0.5c0,0.3-0.1,0.6-0.3,1.2c-0.1,0.4-0.2,0.6-0.2,1.1
			c0,0.7,0.2,1.3,0.2,2.4c0,1.9-1.2,3-2.6,3c-1.1,0-1.7-0.6-1.7-1.5c0-0.7,0.5-1.3,1.3-1.7v0c-0.7-0.2-1.3-0.9-1.3-2
			c0-1.4,1-2.7,2.1-2.7C196.1,29.2,196.5,29.6,196.8,30.2L196.8,30.2z M195.3,34.2c-0.7,0.5-1,0.9-1,1.4s0.3,0.8,0.9,0.8
			c1,0,1.7-0.9,1.7-2.2c0-0.5,0-1-0.1-1.3h0C196.4,33.5,196.2,33.7,195.3,34.2z M195.6,30.1c-0.6,0-1.2,0.7-1.2,1.9
			c0,1,0.4,1.5,0.9,1.5c0.6,0,1.3-1.1,1.4-2.5C196.4,30.3,196,30.1,195.6,30.1z"/>
		<path class="st0" d="M204,33.6c0,0.3-0.4,0.6-0.9,0.6c-0.5,0-0.9-0.4-0.9-1.5h0c-0.3,0.9-0.8,1.5-1.6,1.5c-0.9,0-1.7-0.9-1.7-2.2
			c0-1.6,1-2.9,2.2-2.9c0.5,0,1,0.3,1.2,0.9h0c0.2-0.9,0.4-1.2,0.7-1.2c0.2,0,0.5,0.3,0.5,0.5c0,0.3-0.1,0.6-0.3,1.2
			c-0.1,0.4-0.1,1-0.1,1.6c0,1,0.2,1.3,0.4,1.3c0.2,0,0.3,0,0.5-0.1C203.9,33.4,204,33.5,204,33.6z M201,30.1
			c-0.6,0-1.2,0.7-1.2,1.9c0,1,0.4,1.5,0.9,1.5c0.6,0,1.1-0.6,1.4-1.9l0-0.7C201.9,30.3,201.4,30.1,201,30.1z"/>
		<path class="st0" d="M207.3,30.2c-0.6,0-1.2,1.1-1.2,2.1c0,0.4,0.2,0.8,0.2,1.3c0,0.2-0.3,0.6-0.6,0.6c-0.3,0-0.6-0.4-0.6-1.1
			c0-0.4,0.1-1.2,0.1-2c0-0.8-0.1-1.1-0.4-1.1c-0.2,0-0.4,0-0.6,0.1c-0.1-0.1-0.1-0.2-0.1-0.3c0-0.2,0.4-0.7,1-0.7
			c0.6,0,0.9,0.4,0.9,1.7h0c0.4-1.2,1-1.8,1.5-1.8c0.4,0,0.7,0.3,0.7,0.7c0,0.2-0.1,0.4-0.4,0.6C207.7,30.3,207.5,30.2,207.3,30.2z"
			/>
	</g>
	<g>
		<path class="st0" d="M106.6,2.7h3.5v7.1h3.4l4.6-7.1h3.6v0.5l-5.6,8.2c1.3,1.4,2.7,5.5,5.1,5.5c0.6,0,1.4-0.1,1.9-0.4l0.4,2.8
			c-0.7,0.4-1.9,0.7-3,0.7c-4.2,0-5.9-5.5-7.4-7.2h-3v6.9h-3.5V2.7z"/>
		<path class="st0" d="M137.1,18.4c-1.4,1.1-3.3,1.8-5.5,1.8c-4.9,0-7.2-3-7.2-6.9c0-3.9,2.7-7,6.9-7c4,0,5.9,2.4,5.9,5.5
			c0,0.8-0.1,2.1-0.3,2.6H128c0.3,1.8,1.5,2.9,3.6,2.9c1.7,0,3.2-0.7,4.1-1.4L137.1,18.4z M133.8,11.2c0-1.1-0.8-2-2.6-2
			c-1.9,0-2.9,1.1-3.1,2.4h5.7C133.8,11.5,133.8,11.3,133.8,11.2"/>
		<path class="st0" d="M151.6,18.4c-1.4,1.1-3.3,1.8-5.5,1.8c-4.9,0-7.2-3-7.2-6.9c0-3.9,2.7-7,6.9-7c4,0,5.9,2.4,5.9,5.5
			c0,0.8-0.1,2.1-0.3,2.6h-8.9c0.3,1.8,1.5,2.9,3.6,2.9c1.7,0,3.2-0.7,4.1-1.4L151.6,18.4z M148.4,11.2c0-1.1-0.8-2-2.6-2
			c-1.9,0-2.9,1.1-3.1,2.4h5.7C148.4,11.5,148.4,11.3,148.4,11.2"/>
		<path class="st0" d="M155.4,24.5V10.7c0-0.8-0.2-1.3-0.9-1.3c-0.5,0-1.1,0.2-1.3,0.4L153,7c0.2-0.1,1.5-0.6,2.9-0.6
			c1.4,0,2.3,0.5,2.8,1.7c0.9-1,2.3-1.7,4.2-1.7c3.7,0,6.2,2.8,6.2,6.8c0,3.9-2.5,6.8-6.2,6.8c-1.7,0-3-0.5-3.9-1.3v5.8H155.4z
			 M158.9,10.7v5.1c0.7,0.7,1.8,1.2,2.9,1.2c2.2,0,3.6-1.5,3.6-3.7c0-2.3-1.4-3.8-3.6-3.8C160.6,9.5,159.5,10.1,158.9,10.7"/>
		<path class="st0" d="M183.4,18.4c-1.4,1.1-3.3,1.8-5.5,1.8c-4.9,0-7.2-3-7.2-6.9c0-3.9,2.7-7,6.9-7c4,0,5.9,2.4,5.9,5.5
			c0,0.8-0.1,2.1-0.3,2.6h-8.9c0.3,1.8,1.5,2.9,3.6,2.9c1.7,0,3.2-0.7,4.1-1.4L183.4,18.4z M180.1,11.2c0-1.1-0.8-2-2.6-2
			c-1.9,0-2.9,1.1-3.1,2.4h5.7C180.1,11.5,180.1,11.3,180.1,11.2"/>
		<path class="st0" d="M187.6,10.7c0-0.8-0.2-1.3-0.9-1.3c-0.5,0-1.1,0.3-1.3,0.4L185.2,7c0.2-0.2,1.5-0.6,2.9-0.6
			c1.5,0,2.5,0.6,2.9,2c0.6-1.2,1.6-2,3.3-2c1.2,0,2.2,0.5,2.4,0.8l-0.5,3.2c-0.2-0.3-1.2-0.7-2.4-0.7c-1.7,0-2.3,1.5-2.6,3v7.1
			h-3.5V10.7z"/>
		<path class="st0" d="M207.4,10.4c-1.2-0.6-2.8-1.1-4.2-1.1c-1.1,0-2,0.3-2,1.1c0,0.7,0.5,0.8,1.4,1.1l2.5,0.6
			c2.3,0.6,3.2,1.8,3.2,3.7c0,2.6-2,4.2-5.3,4.2c-2.3,0-4.1-0.6-5.1-1.1l0.7-3c1.2,0.6,2.8,1.2,4.3,1.2c1.3,0,2-0.2,2-1
			c0-0.5-0.7-0.8-1.7-1l-2.3-0.6c-2.1-0.6-3.2-1.8-3.2-3.8c0-2.5,2.2-4.3,5.8-4.3c1.7,0,3.8,0.5,4.8,1L207.4,10.4z"/>
		<polygon class="st0" points="39.6,13.8 39.6,19.8 36.3,19.8 36.3,2.7 49.3,2.7 49.3,5.8 39.6,5.8 39.6,10.7 47.9,10.7 47.9,13.8 
					"/>
		<path class="st0" d="M57.2,6.3c4.1,0,7.1,3,7.1,7c0,3.9-3,6.9-7.1,6.9c-4.1,0-7-2.9-7-6.9C50.2,9.3,53.2,6.3,57.2,6.3 M57.2,16.9
			c2.2,0,3.7-1.6,3.7-3.7c0-2.1-1.5-3.7-3.7-3.7c-2.2,0-3.6,1.6-3.6,3.7C53.6,15.3,55.1,16.9,57.2,16.9"/>
		<path class="st0" d="M58,6.6h-1.5c0-1.3-1.1-2.4-2.4-2.4V2.7C56.3,2.7,58,4.5,58,6.6"/>
		<path class="st0" d="M60.8,3.8C59.6,4.5,58,4.2,58,4.2s0.4-1.5,1.6-2.3c1.2-0.7,2.8-0.4,2.8-0.4S62,3,60.8,3.8"/>
		<path class="st0" d="M72.9,6.3c4.1,0,7.1,3,7.1,7c0,3.9-3,6.9-7.1,6.9c-4.1,0-7-2.9-7-6.9C65.9,9.3,68.9,6.3,72.9,6.3 M72.9,16.9
			c2.2,0,3.7-1.6,3.7-3.7c0-2.1-1.5-3.7-3.7-3.7c-2.2,0-3.6,1.6-3.6,3.7C69.3,15.3,70.8,16.9,72.9,16.9"/>
		<path class="st0" d="M95.3,2v13.8c0,0.8,0.2,1.3,0.9,1.3c0.4,0,0.8-0.2,1.3-0.4l0.2,2.8C97,19.8,95.9,20,94.7,20
			c-1.4,0-2.3-0.5-2.8-1.7c-0.9,1-2.2,1.7-4.2,1.7c-3.6,0-6.2-2.9-6.2-6.8c0-4,2.5-6.8,6.2-6.8c1.7,0,3,0.5,3.9,1.3V2H95.3z
			 M88.8,17c1.2,0,2.3-0.6,2.9-1.2v-5.1C91.1,10,90,9.5,88.8,9.5c-2.2,0-3.6,1.5-3.6,3.7C85.2,15.5,86.6,17,88.8,17"/>
	</g>
	<g>
		<path class="st0" d="M21.7,22h-9.5c-1.1,0-2.1-0.9-2.1-2.1v-6.7h13.7v6.7C23.8,21,22.8,22,21.7,22"/>
		<rect x="9.5" y="11.6" class="st0" width="15" height="0.7"/>
		<path class="st0" d="M5.8,4.9H4.1C2.9,4.9,2,4,2,2.9v-1h5.9v1C7.8,4,6.9,4.9,5.8,4.9"/>
		<rect x="1.3" y="0.2" class="st0" width="7.1" height="0.7"/>
		<path class="st0" d="M5.8,10.6H4.1C2.9,10.6,2,9.7,2,8.5v-1h5.9v1C7.8,9.7,6.9,10.6,5.8,10.6"/>
		<rect x="1.3" y="5.9" class="st0" width="7.1" height="0.7"/>
		<path class="st0" d="M5.8,16.3H4.1c-1.1,0-2.1-0.9-2.1-2.1v-1h5.9v1C7.8,15.3,6.9,16.3,5.8,16.3"/>
		<rect x="1.3" y="11.6" class="st0" width="7.1" height="0.7"/>
		<path class="st0" d="M5.8,22H4.1C2.9,22,2,21,2,19.9v-1h5.9v1C7.8,21,6.9,22,5.8,22"/>
		<rect x="1.3" y="17.3" class="st0" width="7.1" height="0.7"/>
		<path class="st0" d="M21.7,10.6h-9.5c-1.1,0-2.1-0.9-2.1-2.1v-1h13.7v1C23.8,9.7,22.8,10.6,21.7,10.6"/>
		<rect x="9.5" y="5.9" class="st0" width="15" height="0.7"/>
		<path class="st0" d="M21.7,4.9h-9.5c-1.1,0-2.1-0.9-2.1-2.1v-1h13.7v1C23.8,4,22.8,4.9,21.7,4.9"/>
		<rect x="9.5" y="0.2" class="st0" width="15" height="0.7"/>
	</g>
</g>
</svg>
